<svg xmlns="http://www.w3.org/2000/svg" viewBox="0 0 512 512"><path d="M169.13 98.85a115.06 115.06 0 0 1 22.26-60.07c4.44-6.09 11.59-4.14 16.49.44 17 15.89 33.94 31.82 50.2 48.43 12 12.23 14.1 28.76 17.28 44.8 3.38 17.11 0 34.72 4.83 51.76 1.41 5-3.62 7.83-8.27 5.6-25.7-12.33-52.32-23.27-76.43-38.23-18.49-11.46-26.1-31.81-26.36-52.73Zm30.76-41.25c-.08 1.62-.35 2.43-.12 3.07 12.36 35.71 26 70.73 55.16 96.84a16.86 16.86 0 0 0 3 1.72 29.05 29.05 0 0 0-1.3-3.28c-16.07-29.25-32.09-58.53-48.33-87.7-2.02-3.61-5.16-6.59-8.41-10.65Z" style="fill:#4a5f58"/><path d="M199.89 57.6c3.25 4.06 6.39 7 8.4 10.65 16.24 29.17 32.26 58.45 48.33 87.7a29.05 29.05 0 0 1 1.3 3.28 16.86 16.86 0 0 1-3-1.72c-29.19-26.11-42.8-61.13-55.16-96.84-.22-.67.05-1.45.13-3.07Z" style="fill:#f3cd14"/><path d="M401.22 230.32c-4.32-20.76-12.52-40.57-22.15-59.93-9.09-18.25-21.56-33.54-34.58-48.34C325.07 100 298.28 87 274.88 69.8 263.43 65.54 252 61.23 240.54 57c-11.87-4.3-18.21-15-26.86-23.07-1.84-1.71-1.13-2.4 3.58-2.5q48.28-1.07 96.57-2.17c1.2 0 2.38-.77 3.57-1.18a8.07 8.07 0 0 0-2.34-1.08c-20.35-1.8-40.59-6.18-61.08-4.86-15.32 1-31.21-.35-45.57 7.32-1 .51-2.75-.53-4.15-.85-11.07-1.92-20 2.91-28.93 8.59C155 50.13 160.85 72.88 154 90.84c-8.31 21.7-14.41 44.53-27.59 64.51-6.89 10.44-9.78 23.47-15 35.12-6 13.53-2.3 28.42-6.41 42.16v6.55c6.19 13 1.13 27.13 4.37 40.56 7.37 30.51 11.58 61.44 30.57 88.6 16.86 24.11 35 46.75 55.55 67.56 22 22.3 48.37 36 79.23 43.29 16.93 4 31 15 44.14 26.82 6.34 5.56 12.39 6.48 18 5.79 6.74-1 12.33-3.77 13.26-13.42.63-6.51-1.51-13 .48-19.79 2.92-9.9 9.34-18.36 12.53-27.48 5.69-16.27 15-30.9 19.46-47.64 4.37-16.47 10.94-32.4 14.54-49 3.8-17.48 5.68-35.45 8.28-53.16 3.59-24.4.59-47.84-4.19-70.99Zm-129.3-40.51c-25.7-12.33-52.32-23.27-76.43-38.23-18.46-11.46-26.1-31.81-26.36-52.73a115.06 115.06 0 0 1 22.26-60.07c4.44-6.09 11.59-4.14 16.49.44 17 15.89 33.94 31.82 50.2 48.43 12 12.23 14.1 28.76 17.28 44.8 3.38 17.11 0 34.72 4.83 51.76 1.41 5-3.62 7.79-8.27 5.6Z" style="fill:#f3cd14"/><path d="M352.6 22.19c-22.92-7.92-45.25-18.08-69.77-20.71-16.87-2-16.87-2-22.46 0-19.67 7-39.32 14.13-56.11 27.13 1.4.32 3.19 1.36 4.15.85 14.36-7.67 30.25-6.33 45.57-7.32 20.49-1.32 40.73 3.06 61.08 4.86a8.07 8.07 0 0 1 2.34 1.08c-1.19.41-2.37 1.15-3.57 1.18q-48.29 1.15-96.57 2.17c-4.71.1-5.42.79-3.58 2.5 8.65 8 15 18.77 26.86 23.11 11.47 4.19 22.89 8.5 34.34 12.76 2.15-.31 4.31-.57 6.45-.92 26.32-4.24 51.67-11.29 73.49-27.38 7.44-5.5 6.64-16.26-2.22-19.31Z" style="fill:#4a5f58"/></svg>