<svg xmlns="http://www.w3.org/2000/svg" viewBox="0 0 1880 512"><path d="M64.13 98.86a115 115 0 0 1 22.26-60.07c4.44-6.09 11.59-4.14 16.49.44 17 15.89 33.94 31.82 50.2 48.43 12 12.23 14.1 28.76 17.28 44.8 3.38 17.11 0 34.72 4.83 51.76 1.41 5-3.62 7.83-8.27 5.6-25.7-12.33-52.32-23.27-76.43-38.23-18.49-11.46-26.1-31.81-26.36-52.73Zm30.76-41.25c-.08 1.62-.35 2.43-.12 3.07 12.36 35.71 26 70.73 55.16 96.84a16.53 16.53 0 0 0 3 1.72 29.82 29.82 0 0 0-1.3-3.28c-16.07-29.25-32.09-58.53-48.33-87.7-2.02-3.61-5.16-6.59-8.41-10.65Z" style="fill:#edefee"/><path d="M94.89 57.61c3.25 4.06 6.39 7 8.4 10.65 16.24 29.17 32.26 58.45 48.33 87.7a29.82 29.82 0 0 1 1.3 3.28 16.53 16.53 0 0 1-3-1.72c-29.19-26.11-42.8-61.13-55.16-96.84-.22-.68.05-1.45.13-3.07Z" style="fill:#edefee"/><path d="M296.22 230.33c-4.32-20.76-12.52-40.57-22.15-59.93-9.09-18.25-21.56-33.54-34.58-48.34-19.42-22-46.21-35-69.61-52.25C158.43 65.55 147 61.24 135.54 57c-11.87-4.3-18.21-15-26.86-23.07-1.84-1.71-1.13-2.4 3.58-2.5q48.28-1.07 96.57-2.17c1.2 0 2.38-.77 3.57-1.18a8.16 8.16 0 0 0-2.34-1.08c-20.35-1.8-40.59-6.18-61.08-4.86-15.32 1-31.21-.35-45.57 7.32-1 .51-2.75-.53-4.15-.85-11.07-1.92-20 2.91-28.93 8.59C50 50.14 55.85 72.89 49 90.85c-8.31 21.7-14.41 44.53-27.59 64.51-6.89 10.44-9.78 23.47-15 35.12C.41 204 4.11 218.9 0 232.64v6.55c6.19 13 1.13 27.13 4.37 40.56 7.37 30.51 11.58 61.44 30.57 88.6 16.86 24.11 35 46.75 55.55 67.56 22 22.3 48.37 36 79.23 43.29 16.93 4 31 15 44.14 26.82 6.34 5.56 12.39 6.48 18 5.79 6.74-1 12.33-3.77 13.26-13.42.63-6.51-1.51-13 .48-19.79 2.92-9.9 9.34-18.36 12.53-27.48 5.69-16.27 15-30.9 19.46-47.64 4.37-16.47 10.94-32.4 14.54-49 3.8-17.48 5.68-35.45 8.28-53.16 3.59-24.4.59-47.84-4.19-70.99Zm-129.3-40.51c-25.7-12.33-52.32-23.27-76.43-38.23-18.49-11.46-26.1-31.81-26.36-52.73a115 115 0 0 1 22.26-60.07c4.44-6.09 11.59-4.14 16.49.44 17 15.89 33.94 31.82 50.2 48.43 12 12.23 14.1 28.76 17.28 44.8 3.38 17.11 0 34.72 4.83 51.76 1.41 5-3.62 7.79-8.27 5.6Z" style="fill:#edefee"/><path d="M247.6 22.2c-22.92-7.92-45.25-18.08-69.77-20.71-16.87-2-16.87-2-22.46 0-19.67 7-39.32 14.13-56.11 27.13 1.4.32 3.19 1.36 4.15.85 14.36-7.67 30.25-6.33 45.57-7.32 20.49-1.32 40.73 3.06 61.08 4.86a8.16 8.16 0 0 1 2.34 1.08c-1.19.41-2.37 1.15-3.57 1.18q-48.29 1.15-96.57 2.17c-4.71.1-5.42.79-3.58 2.5 8.65 8 15 18.77 26.86 23.11 11.47 4.19 22.89 8.5 34.34 12.76 2.15-.31 4.31-.57 6.45-.92 26.32-4.24 51.67-11.29 73.49-27.38 7.44-5.51 6.64-16.26-2.22-19.31Z" style="fill:#edefee"/><path d="m492 285.93-12.44 22h-24.81V235.4c1.91-.34 3.74-.7 5.46-1.08 2.8-.62 5.12-1.22 6.94-1.81l.68-8.59h-45.41l-.68 8.78 9.57 2.09v74.34a61.56 61.56 0 0 0-8.5 2.87l-.68 8.59h74.41a126 126 0 0 0 4.59-34.66ZM959.7 285.93l-12.44 22h-24.77V235.4c1.92-.34 3.75-.7 5.47-1.08q4.2-.93 6.93-1.81l.69-8.59h-45.41l-.69 8.78 9.57 2.09v74.34a60.92 60.92 0 0 0-8.49 2.87l-.69 8.59h74.42a126 126 0 0 0 4.59-34.66ZM579.82 310.63V236.3a61.46 61.46 0 0 0 8.5-2.88l.68-8.59h-41.5l-.69 8.79 9.57 2.09V310a61.28 61.28 0 0 0-8.49 2.88l-.68 8.59h41.5l.68-8.79ZM715 224.83h-82.84a114.16 114.16 0 0 0-1.66 31.74h9.57l9-19h12.74v72.52c-1.24.25-2.46.52-3.66.82a43.06 43.06 0 0 0-6.4 2.05l-.68 8.59h44.62l.69-8.79-11.13-2.09v-73.1H698l9 19h9.57a114.16 114.16 0 0 0-1.57-31.74ZM844.68 224.83h-82.82a114.54 114.54 0 0 0-1.66 31.74h9.58l9-19h12.73v72.52c-1.24.25-2.46.52-3.66.82a43.06 43.06 0 0 0-6.4 2.05l-.68 8.59h44.63l.68-8.79-11.08-2.13v-73.1h12.74l9 19h9.57a114.54 114.54 0 0 0-1.63-31.7ZM1097.31 290.75h-10.45l-10.36 18.06h-28.61v-30.27h30.57l1-13.28h-31.55v-27.73h27.69l7.76 16.3H1094a102.65 102.65 0 0 0 0-14.45 100.35 100.35 0 0 0-2.1-14.55h-76.27l-.68 8.79 9.57 2.09V310a61 61 0 0 0-8.5 2.88l-.68 8.59h77.63a114.87 114.87 0 0 0 3.47-16.11 87.48 87.48 0 0 0 .87-14.61ZM1280.38 285.93l-12.44 22h-24.77V235.4c1.92-.34 3.75-.7 5.47-1.08q4.2-.93 6.93-1.81l.69-8.59h-45.41l-.69 8.78 9.57 2.09v74.34a61.38 61.38 0 0 0-8.49 2.87l-.69 8.59H1285a126 126 0 0 0 4.59-34.66ZM1416 290.75h-10.45l-10.36 18.06h-28.61v-30.27h30.57l1-13.28h-31.55v-27.73h27.69l7.76 16.3h10.65a102.65 102.65 0 0 0-.05-14.45 100.35 100.35 0 0 0-2.1-14.55h-76.27l-.68 8.79 9.57 2.09V310a61 61 0 0 0-8.5 2.88l-.68 8.59h77.63a114.87 114.87 0 0 0 3.47-16.11 87.48 87.48 0 0 0 .91-14.61ZM1582.72 310.65l-4.94-74.41a57.67 57.67 0 0 0 8.87-2.82l.69-8.59h-39l-22.14 64.94-23.17-64.94h-39l-.69 8.79 10.13 2.1-4.76 74.28a46.29 46.29 0 0 0-7.93 2.88l-.69 8.59h34l.68-8.79-10.55-2.06 3.42-62.5 25.2 68.47q4.29.28 9 .14t9.13-.53l25.26-68.52 3.37 62.32c-1.13.27-2.26.55-3.37.87a57 57 0 0 0-6.1 2.05l-.68 8.59h41.6l.68-8.79ZM1723.49 246.56a42.57 42.57 0 0 0-17.19-17.33q-11.13-6.16-26.27-6.16t-26.27 6.16a42.37 42.37 0 0 0-17.18 17.43q-6.06 11.28-6.06 26.61t6.06 26.46a42.51 42.51 0 0 0 17.18 17.39q11.15 6.15 26.18 6.15 15.22 0 26.36-6.15a42.53 42.53 0 0 0 17.19-17.44q6.06-11.28 6-26.61t-6-26.51Zm-41.11 64.21q-12.12 0-18.7-10.74t-6.6-30.67q0-33.78 20.61-33.79 12.21 0 18.75 10.74T1703 277q0 33.76-20.62 33.77ZM1875.46 224.83h-33.11l-.68 8.79 9.57 2.09v50.91l-50.59-61.79h-23.92l-.69 8.79 9.77 3.45v73a61.46 61.46 0 0 0-8.5 2.88l-.68 8.59h35.06l.68-8.79-10.94-2.08v-50.22L1852 322.1a71.72 71.72 0 0 0 14.84-.49V236.3a50.91 50.91 0 0 0 7.91-2.88Z" style="fill:#edefee;stroke:#edefee;stroke-linecap:round;stroke-linejoin:round;stroke-width:2px"/></svg>